<svg viewBox="0 0 24 24" fill="none">
  <path fill="currentColor" d="M12 0C5.37 0 0 5.37 0 12c0 5.3 3.438 9.8 8.205 11.385.6.113.82-.26.82-.577v-2.234c-3.338.726-4.033-1.416-4.033-1.416-.546-1.387-1.333-1.756-1.333-1.756-1.089-.745.083-.729.083-.729 1.205.085 1.84 1.237 1.84 1.237 1.07 1.834 2.809 1.304 3.495.997.108-.775.418-1.305.762-1.606-2.665-.304-5.466-1.332-5.466-5.93 0-1.31.468-2.381 1.236-3.221-.124-.303-.535-1.523.117-3.176 0 0 1.008-.322 3.301 1.23a11.52 11.52 0 013.003-.404c1.018.005 2.045.138 3.003.404 2.291-1.552 3.297-1.23 3.297-1.23.653 1.653.242 2.873.119 3.176.77.84 1.235 1.911 1.235 3.221 0 4.61-2.804 5.624-5.475 5.921.43.372.823 1.102.823 2.222v3.293c0 .32.218.694.825.576C20.565 21.796 24 17.297 24 12c0-6.63-5.37-12-12-12z"/>
</svg>
