<svg viewBox="0 0 24 24" fill="none">
  <path fill="currentColor" d="M22.46 5.924c-.793.352-1.646.59-2.543.697a4.48 4.48 0 001.965-2.47 8.94 8.94 0 01-2.828 1.082A4.48 4.48 0 0016.11 4c-2.48 0-4.49 2.01-4.49 4.49 0 .352.04.696.116 1.025C7.728 9.37 4.1 7.6 1.67 4.905c-.386.663-.607 1.434-.607 2.26 0 1.56.795 2.936 2.005 3.744a4.48 4.48 0 01-2.034-.563v.057c0 2.18 1.55 4.002 3.604 4.417a4.48 4.48 0 01-2.027.077c.572 1.785 2.23 3.085 4.197 3.12A8.98 8.98 0 012 19.54a12.68 12.68 0 006.88 2.017c8.26 0 12.78-6.84 12.78-12.78 0-.195-.004-.39-.013-.583A9.18 9.18 0 0024 4.59a8.98 8.98 0 01-2.54.697z"/>
</svg>
